<svg width="1512" height="982" viewBox="0 0 1512 982" fill="none" xmlns="http://www.w3.org/2000/svg">
<rect width="1512" height="982" fill="#FFFDC6"/>
<path d="M163.662 900.495L142.169 895.934C139.277 895.332 139.277 891.144 142.169 890.542L163.662 885.981C165.533 885.579 166.441 883.399 165.392 881.764L163.067 878.15C161.45 875.654 164.371 872.7 166.838 874.335L170.41 876.687C172.027 877.748 174.182 876.83 174.579 874.937L179.087 853.194C179.682 850.269 183.822 850.269 184.418 853.194L188.926 874.937C189.323 876.83 191.478 877.748 193.094 876.687L196.667 874.335C199.134 872.7 202.054 875.654 200.438 878.15L198.113 881.764C197.064 883.399 197.971 885.579 199.843 885.981L221.336 890.542C224.228 891.144 224.228 895.332 221.336 895.934L199.843 900.495C197.971 900.897 197.064 903.077 198.113 904.712L200.438 908.326C202.054 910.821 199.134 913.776 196.667 912.141L193.094 909.789C191.478 908.728 189.323 909.645 188.926 911.539L184.418 933.281C183.822 936.207 179.682 936.207 179.087 933.281L174.579 911.539C174.182 909.645 172.027 908.728 170.41 909.789L166.838 912.141C164.371 913.776 161.45 910.821 163.067 908.326L165.392 904.712C166.441 903.077 165.533 900.897 163.662 900.495Z" fill="#00A796" stroke="#503836" stroke-width="2" stroke-linecap="round" stroke-linejoin="round"/>
<path d="M1324.99 162.946L1334.24 153.22L1340.11 165.223C1341.14 167.331 1344.38 166.544 1344.29 164.211L1343.83 150.915L1356.6 155.328C1358.83 156.115 1360.58 153.304 1358.83 151.73L1348.93 142.65L1361.15 136.888C1363.3 135.876 1362.5 132.699 1360.12 132.784L1346.58 133.233L1351.07 120.696C1351.88 118.503 1349.01 116.789 1347.41 118.503L1338.16 128.23L1332.29 116.227C1331.26 114.118 1328.03 114.905 1328.11 117.239L1328.57 130.535L1315.8 126.121C1313.57 125.334 1311.82 128.145 1313.57 129.72L1323.47 138.799L1311.25 144.562C1309.1 145.574 1309.9 148.75 1312.28 148.666L1325.82 148.216L1321.33 160.753C1320.53 162.946 1323.39 164.661 1324.99 162.946Z" fill="#D38386" stroke="#503836" stroke-width="2" stroke-linecap="round" stroke-linejoin="round"/>
<g clip-path="url(#clip0_1_481)">
<path d="M133.07 114.889H74.9303C73.9919 114.889 73.2312 115.665 73.2312 116.622V121.421C73.2312 122.379 73.9919 123.155 74.9303 123.155H133.07C134.008 123.155 134.769 122.379 134.769 121.421V116.622C134.769 115.665 134.008 114.889 133.07 114.889Z" fill="#F6ECF4" stroke="#503836" stroke-width="3" stroke-linecap="round" stroke-linejoin="round"/>
<path d="M95.5168 108.256H112.483C114.306 108.256 115.783 109.764 115.783 111.623V114.889H92.217V111.623C92.217 109.764 93.6945 108.256 95.5168 108.256Z" fill="#F6ECF4" stroke="#503836" stroke-width="3" stroke-linecap="round" stroke-linejoin="round"/>
<path d="M123.687 181.744H84.3123C83.4012 181.744 82.6625 181.04 82.5886 180.111L78.624 124.336C78.5748 123.707 79.0673 123.18 79.6829 123.18H128.317C128.933 123.18 129.425 123.707 129.376 124.336L125.411 180.111C125.337 181.015 124.599 181.744 123.687 181.744Z" fill="#F6ECF4" stroke="#503836" stroke-width="3" stroke-linecap="round" stroke-linejoin="round"/>
<path d="M103.988 131.596V174.96" stroke="#503836" stroke-width="3" stroke-linecap="round" stroke-linejoin="round"/>
<path d="M116.275 131.647L113.542 174.91" stroke="#503836" stroke-width="3" stroke-linecap="round" stroke-linejoin="round"/>
<path d="M91.7244 131.647L94.4577 174.91" stroke="#503836" stroke-width="3" stroke-linecap="round" stroke-linejoin="round"/>
</g>
<g clip-path="url(#clip1_1_481)">
<path d="M142.729 290.411V352.615C142.729 356.553 139.528 359.755 135.589 359.755H73.3853C69.4468 359.755 66.2451 356.553 66.2451 352.615V290.411C66.2451 286.472 69.4468 283.271 73.3853 283.271H135.589C139.528 283.271 142.729 286.472 142.729 290.411Z" fill="white" stroke="#503836" stroke-width="3" stroke-linecap="round" stroke-linejoin="round"/>
<path d="M129.669 294.07H79.3313C78.0823 294.07 77.0698 295.082 77.0698 296.331V346.669C77.0698 347.918 78.0823 348.93 79.3313 348.93H129.669C130.918 348.93 131.93 347.918 131.93 346.669V296.331C131.93 295.082 130.918 294.07 129.669 294.07Z" fill="#BADECB" stroke="#503836" stroke-linecap="round" stroke-linejoin="round"/>
<path d="M131.93 322.961C131.93 322.961 122.122 313.94 117.014 314.322C111.704 314.728 110.001 317.6 96.9404 334.548L128.83 348.905C128.83 348.905 131.905 349.591 131.905 346.643V322.936L131.93 322.961Z" fill="#A6D193"/>
<path d="M127.128 348.93C89.0126 330.889 77.0698 324.892 77.0698 324.892L77.1461 347.202C77.1461 347.202 76.6379 349.083 81.7199 349.006C86.8019 348.93 127.153 348.93 127.153 348.93H127.128Z" fill="#4EB076"/>
<path d="M127.128 348.93C89.0126 330.889 77.0698 324.892 77.0698 324.892" stroke="#503836" stroke-width="3" stroke-linecap="round" stroke-linejoin="round"/>
<path d="M131.93 322.961C131.93 322.961 122.122 313.94 117.014 314.322C111.704 314.728 110.001 317.6 96.9404 334.548" stroke="#503836" stroke-width="3" stroke-linecap="round" stroke-linejoin="round"/>
<path d="M91.4266 313.966C94.3175 313.966 96.6611 311.622 96.6611 308.731C96.6611 305.841 94.3175 303.497 91.4266 303.497C88.5357 303.497 86.1921 305.841 86.1921 308.731C86.1921 311.622 88.5357 313.966 91.4266 313.966Z" fill="#FCC882" stroke="#503836" stroke-width="3" stroke-linecap="round" stroke-linejoin="round"/>
<path d="M129.669 294.07H79.3313C78.0823 294.07 77.0698 295.082 77.0698 296.331V346.669C77.0698 347.918 78.0823 348.93 79.3313 348.93H129.669C130.918 348.93 131.93 347.918 131.93 346.669V296.331C131.93 295.082 130.918 294.07 129.669 294.07Z" stroke="#503836" stroke-width="3" stroke-linecap="round" stroke-linejoin="round"/>
</g>
<g clip-path="url(#clip2_1_481)">
<path d="M105.512 535.773C126.091 535.773 142.773 519.091 142.773 498.513C142.773 477.934 126.091 461.252 105.512 461.252C84.934 461.252 68.252 477.934 68.252 498.513C68.252 519.091 84.934 535.773 105.512 535.773Z" fill="#8DCFE6" stroke="#503836" stroke-width="3" stroke-linecap="round" stroke-linejoin="round"/>
<path d="M105.513 535.773C115.968 535.773 124.443 519.091 124.443 498.513C124.443 477.934 115.968 461.252 105.513 461.252C95.0574 461.252 86.5818 477.934 86.5818 498.513C86.5818 519.091 95.0574 535.773 105.513 535.773Z" stroke="#503836" stroke-width="3" stroke-linecap="round" stroke-linejoin="round"/>
<path d="M105.512 461.252V535.748" stroke="#503836" stroke-width="3" stroke-linecap="round" stroke-linejoin="round"/>
<path d="M68.252 498.513H142.748" stroke="#503836" stroke-width="3" stroke-linecap="round" stroke-linejoin="round"/>
<path d="M73.3853 480.033H137.615" stroke="#503836" stroke-width="3" stroke-linecap="round" stroke-linejoin="round"/>
<path d="M73.3853 516.967H137.615" stroke="#503836" stroke-width="3" stroke-linecap="round" stroke-linejoin="round"/>
</g>
<g clip-path="url(#clip3_1_481)">
<path d="M1443.11 698.747H1371.91C1370.46 698.747 1369.27 697.594 1369.27 696.14V646.009C1369.27 644.58 1370.44 643.402 1371.91 643.402H1434.84C1435.7 643.402 1436.54 643.753 1437.15 644.38L1444.82 652.175C1445.4 652.777 1445.73 653.579 1445.73 654.406V696.165C1445.73 697.594 1444.56 698.772 1443.09 698.772L1443.11 698.747Z" fill="#FCF7A5" stroke="#503836" stroke-width="3" stroke-linecap="round" stroke-linejoin="round"/>
<path d="M1412.79 643.402H1370.95L1379.55 634.253H1404.19L1412.79 643.402Z" fill="#FCF7A5" stroke="#503836" stroke-width="3" stroke-linecap="round" stroke-linejoin="round"/>
</g>
<g clip-path="url(#clip4_1_481)">
<path d="M1444.11 866.728H1372.91C1371.46 866.728 1370.27 865.558 1370.27 864.082V813.203C1370.27 811.753 1371.44 810.557 1372.91 810.557H1435.84C1436.7 810.557 1437.54 810.914 1438.15 811.55L1445.82 819.461C1446.4 820.072 1446.73 820.886 1446.73 821.725V864.108C1446.73 865.558 1445.56 866.753 1444.09 866.753L1444.11 866.728Z" fill="#FCF7A5" stroke="#503836" stroke-width="3" stroke-linecap="round" stroke-linejoin="round"/>
<path d="M1413.79 810.557H1371.95L1380.55 801.272H1405.19L1413.79 810.557Z" fill="#FCF7A5" stroke="#503836" stroke-width="3" stroke-linecap="round" stroke-linejoin="round"/>
</g>
<g clip-path="url(#clip5_1_481)">
<path d="M1431.09 460.37H1382.91C1381.45 460.37 1380.27 461.538 1380.27 462.979V528.163C1380.27 529.603 1381.45 530.771 1382.91 530.771H1431.09C1432.55 530.771 1433.73 529.603 1433.73 528.163V462.979C1433.73 461.538 1432.55 460.37 1431.09 460.37Z" fill="white" stroke="#503836" stroke-width="3" stroke-miterlimit="10"/>
<path d="M1389.92 479.808H1424.08" stroke="#503836" stroke-width="3" stroke-miterlimit="10" stroke-linecap="round"/>
<path d="M1389.92 489.363H1424.08" stroke="#503836" stroke-width="3" stroke-miterlimit="10" stroke-linecap="round"/>
<path d="M1389.92 498.894H1424.08" stroke="#503836" stroke-width="3" stroke-miterlimit="10" stroke-linecap="round"/>
<path d="M1389.92 508.45H1424.08" stroke="#503836" stroke-width="3" stroke-miterlimit="10" stroke-linecap="round"/>
<path d="M1389.92 518.005H1424.08" stroke="#503836" stroke-width="3" stroke-miterlimit="10" stroke-linecap="round"/>
<path d="M1389.92 455.63V465.111" stroke="#503836" stroke-width="3" stroke-linecap="round" stroke-linejoin="round"/>
<path d="M1401.31 455.63V465.111" stroke="#503836" stroke-width="3" stroke-linecap="round" stroke-linejoin="round"/>
<path d="M1412.71 455.63V465.111" stroke="#503836" stroke-width="3" stroke-linecap="round" stroke-linejoin="round"/>
<path d="M1424.08 455.63V465.111" stroke="#503836" stroke-width="3" stroke-linecap="round" stroke-linejoin="round"/>
</g>
<g clip-path="url(#clip6_1_481)">
<path d="M1431.21 352.779H1384.82C1383.4 352.779 1382.22 351.631 1382.22 350.19V286.81C1382.22 285.369 1383.37 284.221 1384.82 284.221H1421C1421.78 284.221 1422.81 286.737 1423.13 287.421C1424.5 290.474 1424.91 289.717 1425.87 294.919C1426.02 295.652 1433.78 296.213 1433.78 296.995V350.19C1433.78 351.606 1432.63 352.779 1431.18 352.779H1431.21Z" fill="white" stroke="#503836" stroke-width="3" stroke-miterlimit="10"/>
<path d="M1421.93 297.483L1432.36 298.167C1433.46 298.24 1434.05 296.922 1433.26 296.14L1422.17 285.052C1421.39 284.27 1420.07 284.881 1420.14 285.955L1420.83 296.36C1420.88 296.946 1421.34 297.434 1421.93 297.459V297.483Z" fill="white" stroke="#503836" stroke-width="3" stroke-miterlimit="10"/>
<path d="M1391.53 307.863H1424.47" stroke="#503836" stroke-width="3" stroke-miterlimit="10" stroke-linecap="round"/>
<path d="M1391.53 315.264H1424.47" stroke="#503836" stroke-width="3" stroke-miterlimit="10" stroke-linecap="round"/>
<path d="M1391.53 322.689H1424.47" stroke="#503836" stroke-width="3" stroke-miterlimit="10" stroke-linecap="round"/>
<path d="M1391.53 330.089H1424.47" stroke="#503836" stroke-width="3" stroke-miterlimit="10" stroke-linecap="round"/>
<path d="M1391.53 337.514H1415.03" stroke="#503836" stroke-width="3" stroke-miterlimit="10" stroke-linecap="round"/>
</g>
<path d="M83.5031 207.52L82.4231 209.06C80.7031 208.32 79.5831 206.94 78.9631 205.28C78.3431 206.98 77.1831 208.5 75.3631 209.3C73.5631 208.48 72.4031 206.94 71.7831 205.24C71.1431 206.88 70.0231 208.3 68.3231 209.06L67.2431 207.52C69.6031 206.46 70.7631 204.1 70.7631 202.06V199.86H72.8231V202.06C72.8231 203.76 73.6031 205.86 75.3831 207.14C77.1431 205.88 77.9031 203.84 77.9031 202.06V199.86H79.9831V202.06C79.9831 204.24 81.1231 206.48 83.5031 207.52ZM67.1831 212.52H83.6031V214.22H67.1831V212.52ZM88.1616 206.94V210.5C90.0616 210.48 91.8416 210.38 93.9616 210.02L94.1416 211.72C91.7016 212.14 89.6816 212.2 87.4216 212.2H86.1816V205.28H90.5816V202.04H86.1416V200.38H92.5616V206.94H88.1616ZM95.4016 204.8V198.88H97.3216V215.64H95.4016V206.5H93.3616V204.8H95.4016ZM99.0616 198.48H101.022V216.54H99.0616V198.48ZM105.04 200.38H113.6C113.6 205.76 111.44 210.32 105.24 213.32L104.14 211.68C108.88 209.4 111.12 206.22 111.48 202.06H105.04V200.38ZM116.86 198.48H118.92V216.54H116.86V198.48ZM130.538 215C133.278 215 134.698 214.56 134.698 213.6C134.698 212.68 133.278 212.22 130.538 212.22C127.818 212.22 126.398 212.68 126.398 213.6C126.398 214.56 127.818 215 130.538 215ZM130.538 210.7C134.478 210.7 136.758 211.7 136.758 213.6C136.758 215.52 134.478 216.54 130.538 216.54C126.618 216.54 124.318 215.52 124.318 213.6C124.318 211.7 126.618 210.7 130.538 210.7ZM131.598 207.92H138.718V209.58H122.378V207.92H129.518V206.44H124.478V198.98H136.778V200.56H126.538V201.92H136.338V203.46H126.538V204.86H136.898V206.44H131.598V207.92Z" fill="#503836"/>
<path d="M1395.12 372.96V381.5C1395.92 381.48 1396.76 381.44 1397.58 381.4V372.96H1395.12ZM1399.58 372.96V381.28C1400.42 381.2 1401.26 381.12 1402.06 381.02L1402.18 382.54C1398.44 383.16 1394.26 383.22 1391.12 383.22L1390.9 381.52C1391.58 381.52 1392.34 381.52 1393.12 381.52V372.96H1391.36V371.3H1401.34V372.96H1399.58ZM1407.92 376.54V378.24H1405.1V387.56H1403.04V369.48H1405.1V376.54H1407.92ZM1424.4 369.46V378.64H1422.34V369.46H1424.4ZM1411.86 374.14C1411.86 375.58 1413.02 376.52 1414.58 376.52C1416.16 376.52 1417.34 375.58 1417.34 374.14C1417.34 372.7 1416.16 371.76 1414.58 371.76C1413.02 371.76 1411.86 372.7 1411.86 374.14ZM1419.34 374.14C1419.34 376.52 1417.32 378.2 1414.58 378.2C1411.86 378.2 1409.86 376.52 1409.86 374.14C1409.86 371.76 1411.86 370.06 1414.58 370.06C1417.32 370.06 1419.34 371.76 1419.34 374.14ZM1414.62 385.7H1424.94V387.32H1412.6V382.58H1422.36V381.08H1412.56V379.46H1424.4V384.1H1414.62V385.7Z" fill="#503836"/>
<path d="M1400.32 561.66H1407.48V563.36H1391.12V561.66H1398.24V557.16H1393.04V548.94H1395.12V555.48H1405.68V557.16H1400.32V561.66ZM1424.06 557.02V558.68H1411.54V548.94H1423.92V550.6H1413.64V552.92H1423.52V554.54H1413.64V557.02H1424.06ZM1409.52 561.64H1425.9V563.32H1409.52V561.64Z" fill="#503836"/>
<path d="M1395.12 730.44V731.84H1405.92V733.38H1393.08V729.02H1403.38V727.78H1393.04V726.26H1405.4V730.44H1395.12ZM1397.18 717.5V720.42H1401.34V717.5H1397.18ZM1400.3 723.44H1407.46V725.08H1391.08V723.44H1398.22V721.98H1392.66V720.42H1395.12V717.5H1392.56V715.92H1405.94V717.5H1403.4V720.42H1405.84V721.98H1400.3V723.44ZM1412.46 718.82V727.44C1415.4 727.42 1417.38 727.32 1419.68 726.9L1419.88 728.56C1417.38 729.04 1415.18 729.16 1411.82 729.16H1410.4V717.14H1418.6V718.82H1412.46ZM1422.46 715.46H1424.52V733.58H1422.46V723.58H1417.62V721.88H1422.46V715.46Z" fill="#503836"/>
<path d="M1395.12 898.44V899.84H1405.92V901.38H1393.08V897.02H1403.38V895.78H1393.04V894.26H1405.4V898.44H1395.12ZM1397.18 885.5V888.42H1401.34V885.5H1397.18ZM1400.3 891.44H1407.46V893.08H1391.08V891.44H1398.22V889.98H1392.66V888.42H1395.12V885.5H1392.56V883.92H1405.94V885.5H1403.4V888.42H1405.84V889.98H1400.3V891.44ZM1412.46 886.82V895.44C1415.4 895.42 1417.38 895.32 1419.68 894.9L1419.88 896.56C1417.38 897.04 1415.18 897.16 1411.82 897.16H1410.4V885.14H1418.6V886.82H1412.46ZM1422.46 883.46H1424.52V901.58H1422.46V891.58H1417.62V889.88H1422.46V883.46Z" fill="#503836"/>
<path d="M92.4416 377.98V380.94C92.4416 384.16 94.1216 387.42 96.8416 388.76L95.5816 390.4C93.6416 389.4 92.2016 387.44 91.4216 385.08C90.6416 387.58 89.1216 389.68 87.0616 390.74L85.8016 389.08C88.6216 387.7 90.3816 384.28 90.3816 380.94V377.98H92.4416ZM102.922 383.64V385.34H100.102V394.54H98.0416V376.48H100.102V383.64H102.922ZM119.4 376.5V389.64H117.34V376.5H119.4ZM115.66 385.6L114.62 387.22C112.54 386.54 111.02 385.14 110.22 383.36C109.42 385.28 107.9 386.82 105.74 387.54L104.66 385.94C107.52 384.98 109.14 382.64 109.14 380.2V379.54H105.22V377.88H115.1V379.54H111.24V380.2C111.24 382.5 112.88 384.7 115.66 385.6ZM109.68 392.52H119.92V394.2H107.6V388.44H109.68V392.52Z" fill="#503836"/>
<path d="M91.3023 552.48V565.6H89.2423V552.48H91.3023ZM78.7823 558.2C78.7823 559.84 79.9623 560.94 81.5623 560.94C83.1423 560.94 84.3423 559.84 84.3423 558.2C84.3423 556.54 83.1423 555.46 81.5623 555.46C79.9623 555.46 78.7823 556.54 78.7823 558.2ZM86.3423 558.2C86.3423 560.82 84.2823 562.72 81.5623 562.72C78.8423 562.72 76.7623 560.82 76.7623 558.2C76.7623 555.56 78.8423 553.68 81.5623 553.68C84.2823 553.68 86.3423 555.56 86.3423 558.2ZM81.5823 568.52H91.8223V570.2H79.5023V564.28H81.5823V568.52ZM97.6808 560.76V564.66C100.561 564.64 102.621 564.54 104.981 564.14L105.161 565.8C102.581 566.26 100.321 566.34 97.0408 566.34H95.6208V554.04H104.001V555.74H97.6808V559.12H103.261V560.76H97.6808ZM107.741 552.44H109.821V570.56H107.741V560.78H104.281V559.08H107.741V552.44ZM128.599 552.46V564.7H126.639V552.46H128.599ZM122.999 563.08V558.12H119.459V556.46H122.999V552.82H124.939V563.08H122.999ZM121.439 560.3L121.659 561.98C119.379 562.48 117.419 562.58 115.299 562.58H114.119V554.08H116.159V560.9C117.899 560.86 119.579 560.7 121.439 560.3ZM123.479 563.8V564.36C123.479 566.48 125.939 568.4 129.419 568.88L128.679 570.48C125.859 570.06 123.579 568.74 122.459 566.92C121.339 568.74 119.059 570.06 116.239 570.48L115.459 568.88C118.979 568.4 121.419 566.48 121.419 564.36V563.8H123.479Z" fill="#503836"/>
<path d="M1373.51 206.558C1374.43 205.933 1375.18 204.996 1375.58 203.859L1378.34 195.765L1386.97 196.077C1389.39 196.162 1391.54 194.685 1392.32 192.413L1395.08 184.319L1403.71 184.631C1406.13 184.716 1408.29 183.239 1409.06 180.967L1413.12 169.067C1414.07 166.255 1412.54 163.216 1409.69 162.278C1406.85 161.341 1403.77 162.846 1402.82 165.658L1400.06 173.753L1391.43 173.44C1389.01 173.355 1386.83 174.832 1386.08 177.104L1383.32 185.199L1374.69 184.887C1372.27 184.801 1370.09 186.278 1369.34 188.551L1365.28 200.451C1364.33 203.263 1365.86 206.302 1368.7 207.239C1370.4 207.807 1372.16 207.495 1373.54 206.558H1373.51Z" fill="#FCC882" stroke="#503836" stroke-width="2" stroke-linecap="round" stroke-linejoin="round"/>
<path d="M58.6056 797.012C61.7015 797.012 64.2112 794.323 64.2112 791.006C64.2112 787.689 61.7015 785 58.6056 785C55.5097 785 53 787.689 53 791.006C53 794.323 55.5097 797.012 58.6056 797.012Z" fill="#A897C2" stroke="#503836" stroke-width="2" stroke-linecap="round" stroke-linejoin="round"/>
<path d="M114.879 789.064C117.399 789.236 119.29 791.438 119.118 793.955C118.946 796.472 116.741 798.36 114.22 798.188C104.883 797.531 96.7773 804.567 96.1185 813.891C95.116 828.221 82.5995 839.091 68.2499 838.061C65.7294 837.889 63.839 835.687 64.0108 833.17C64.1827 830.653 66.3881 828.765 68.9086 828.937C78.2459 829.594 86.3516 822.558 87.0104 813.234C88.0128 798.904 100.529 788.063 114.879 789.064Z" fill="#FCF7A5" stroke="#503836" stroke-width="2" stroke-linecap="round" stroke-linejoin="round"/>
<path d="M1464.1 76.0641C1464.1 80.5023 1460.5 84.1282 1456.06 84.1282C1451.63 84.1282 1448 80.5313 1448 76.0641C1448 71.626 1451.6 68 1456.06 68C1460.5 68 1464.1 71.5969 1464.1 76.0641Z" fill="#BADECB" stroke="#503836" stroke-width="2" stroke-miterlimit="10"/>
<defs>
<clipPath id="clip0_1_481">
<rect width="64" height="76" fill="white" transform="translate(72 107)"/>
</clipPath>
<clipPath id="clip1_1_481">
<rect width="79" height="79" fill="white" transform="translate(65 282)"/>
</clipPath>
<clipPath id="clip2_1_481">
<rect width="77" height="77" fill="white" transform="translate(67 460)"/>
</clipPath>
<clipPath id="clip3_1_481">
<rect width="79" height="67" fill="white" transform="translate(1368 633)"/>
</clipPath>
<clipPath id="clip4_1_481">
<rect width="79" height="68" fill="white" transform="translate(1369 800)"/>
</clipPath>
<clipPath id="clip5_1_481">
<rect width="56" height="78" fill="white" transform="translate(1379 454)"/>
</clipPath>
<clipPath id="clip6_1_481">
<rect width="54" height="71" fill="white" transform="translate(1381 283)"/>
</clipPath>
</defs>
</svg>
